<mxfile host="app.diagrams.net" modified="2024-04-16T04:54:30.045Z" agent="Mozilla/5.0 (Windows NT 10.0; Win64; x64) AppleWebKit/537.36 (KHTML, like Gecko) Chrome/122.0.0.0 Safari/537.36 OPR/108.0.0.0" version="24.2.5" etag="GV1r0wU4jO_bnXlfJf93" type="github">
  <diagram name="Страница — 1" id="MkJJVbUG4_KD6GBAf8vS">
    <mxGraphModel>
      <root>
        <mxCell id="0" />
        <mxCell id="1" parent="0" />
      </root>
    </mxGraphModel>
  </diagram>
</mxfile>
